<?xml version="1.0" standalone="no"?>
<!DOCTYPE svg PUBLIC "-//W3C//DTD SVG 20010904//EN"
 "http://www.w3.org/TR/2001/REC-SVG-20010904/DTD/svg10.dtd">
<svg version="1.0" xmlns="http://www.w3.org/2000/svg"
 width="720.000000pt" height="720.000000pt" viewBox="0 0 720.000000 720.000000"
 preserveAspectRatio="xMidYMid meet">
<metadata>
Created by potrace 1.14, written by Peter Selinger 2001-2017
</metadata>
<g transform="translate(0.000000,720.000000) scale(0.100000,-0.100000)"
fill="#000000" stroke="none">
<path d="M3748 7195 c-3 -3 -32 -6 -65 -6 -32 0 -66 -2 -75 -5 -50 -15 4 -20
215 -20 201 0 396 -8 454 -18 10 -2 43 -7 73 -12 30 -4 57 -8 60 -9 3 -1 20
-5 39 -9 l34 -8 -31 -14 c-39 -16 -34 -42 12 -52 17 -3 34 -5 37 -5 9 3 109
-103 109 -114 0 -5 -21 -25 -47 -43 -61 -43 -161 -128 -238 -202 l-59 -57 -61
5 c-33 3 -71 7 -85 10 -125 22 -752 24 -829 1 -4 -1 -36 35 -70 81 -83 112
-103 135 -193 224 -42 43 -73 80 -68 83 6 3 10 13 10 21 0 22 -43 17 -81 -9
-46 -31 -45 -53 3 -50 34 2 44 -4 106 -65 82 -80 232 -264 232 -285 0 -3 -37
-10 -82 -17 -46 -6 -99 -14 -118 -16 -56 -9 -312 -63 -350 -74 -19 -6 -44 -13
-55 -15 -23 -6 -144 -42 -200 -60 -345 -116 -690 -288 -955 -478 -68 -49 -106
-67 -193 -95 -80 -26 -111 -40 -118 -56 -25 -52 -46 -87 -51 -84 -9 5 -45 -29
-123 -117 -38 -43 -78 -87 -87 -97 -21 -21 -61 -141 -86 -253 -15 -72 -20 -80
-41 -83 -14 -1 -33 -10 -42 -18 -23 -21 -32 -14 -71 56 -18 33 -37 60 -43 60
-6 0 -19 -15 -28 -32 -19 -38 -50 -91 -57 -98 -8 -8 -40 -80 -36 -80 2 0 27
29 55 65 53 68 65 71 84 23 3 -10 11 -18 17 -18 5 0 10 -7 10 -15 0 -8 5 -15
11 -15 5 0 7 -5 4 -11 -4 -6 -9 -29 -11 -52 -5 -56 19 -74 69 -53 33 13 33 13
31 -13 -2 -14 -5 -37 -9 -51 -3 -14 -8 -44 -11 -66 -2 -23 -7 -53 -9 -65 -9
-44 -17 -173 -17 -248 l1 -73 -26 23 c-14 13 -80 76 -147 141 -66 64 -125 114
-129 111 -5 -3 -17 -23 -27 -45 -9 -21 -21 -38 -26 -38 -22 4 -46 -50 -51
-114 -5 -57 -3 -66 11 -66 9 0 21 12 27 28 44 119 62 162 67 162 4 0 70 -55
147 -121 77 -67 150 -129 162 -139 13 -10 23 -23 23 -30 0 -6 -18 -42 -40 -79
-63 -109 -134 -260 -175 -374 l-38 -105 -53 35 c-60 40 -65 55 -45 129 11 42
17 51 32 47 27 -8 51 55 57 147 3 59 1 79 -11 88 -12 10 -17 7 -31 -22 -9 -19
-21 -56 -26 -83 -13 -58 -12 -55 -34 -121 -10 -28 -21 -50 -26 -47 -18 11 -32
-29 -32 -97 -1 -40 -3 -77 -6 -83 -3 -5 -7 -18 -8 -30 -1 -11 -5 -33 -9 -50
-30 -143 -43 -237 -44 -323 -1 -49 -2 -52 -20 -42 -11 5 -22 23 -26 40 -10 44
-26 26 -24 -27 3 -45 28 -99 29 -60 0 23 13 22 35 -3 19 -21 41 -28 29 -8 -4
6 -3 8 3 5 5 -3 25 -60 43 -127 l33 -121 -34 -29 c-21 -17 -38 -25 -44 -19
-16 16 -24 10 -31 -26 -8 -46 2 -85 23 -85 9 0 14 -3 10 -6 -9 -9 58 -231 94
-311 11 -24 24 -54 29 -68 5 -14 14 -25 19 -25 5 0 8 -8 6 -17 -1 -10 10 -41
26 -69 32 -56 61 -168 53 -200 -7 -28 19 -90 45 -104 16 -8 21 -8 22 2 3 30
-4 55 -24 88 -21 34 -34 80 -22 80 3 0 10 -12 16 -28 10 -25 11 -25 21 -9 5
10 11 28 13 40 2 12 17 87 35 167 45 205 62 283 64 297 4 26 14 23 25 -8 8
-24 7 -48 -4 -103 -8 -39 -17 -87 -20 -106 -3 -19 -10 -60 -16 -90 -6 -30 -12
-66 -15 -80 -2 -14 -7 -36 -10 -50 -3 -14 -7 -36 -9 -50 -4 -25 -11 -64 -19
-107 -3 -13 5 -37 20 -58 29 -43 29 -47 5 -62 -16 -10 -20 -9 -25 3 -8 21 -31
12 -31 -12 -1 -30 34 -94 50 -94 10 0 15 10 15 28 0 16 8 36 18 46 18 15 21
13 63 -46 24 -35 51 -71 60 -81 9 -9 22 -30 29 -45 8 -15 22 -36 31 -47 9 -11
38 -81 65 -155 43 -119 54 -141 98 -185 27 -27 96 -110 155 -184 58 -74 115
-139 126 -145 11 -6 53 -41 93 -78 40 -37 125 -104 189 -149 83 -60 123 -95
143 -128 24 -37 180 -179 236 -214 7 -4 -3 23 -22 60 -19 37 -34 69 -34 70 0
2 9 -1 20 -7 11 -6 38 -47 60 -91 35 -69 48 -84 96 -115 30 -19 52 -39 49 -44
-6 -9 49 -43 57 -35 2 3 22 -4 43 -15 22 -11 48 -20 58 -20 23 0 18 22 -9 34
-19 9 -101 156 -87 156 15 0 34 -17 47 -41 7 -13 30 -53 50 -89 20 -36 44 -79
53 -97 17 -33 36 -43 203 -107 85 -33 309 -107 335 -111 11 -2 36 -8 55 -14
l35 -10 -30 24 c-16 14 -38 25 -47 25 -24 0 -211 62 -293 97 -65 28 -65 28
-110 116 -51 100 -50 97 -32 97 10 0 50 -53 52 -70 2 -14 46 -90 57 -97 24
-15 223 -91 228 -87 2 3 0 8 -6 12 -16 10 -66 112 -56 112 14 0 38 -31 65 -86
23 -46 31 -53 79 -69 29 -9 65 -28 81 -41 23 -20 42 -26 70 -24 1 0 25 -6 52
-14 28 -9 66 -18 85 -21 19 -3 53 -12 75 -19 21 -8 51 -12 65 -9 14 3 30 5 35
6 12 0 138 -14 180 -20 64 -9 135 -10 135 -2 0 5 -3 8 -7 7 -11 -2 -85 34
-101 49 -7 7 -16 13 -20 13 -4 0 -36 27 -72 61 l-65 61 60 -7 c33 -4 93 -9
134 -11 40 -2 89 -8 107 -14 19 -7 51 -9 72 -6 20 4 129 8 242 11 113 2 230 6
260 10 50 6 58 4 85 -19 28 -24 138 -87 150 -86 21 1 38 -2 28 -7 -23 -9 -14
-24 11 -19 29 5 82 32 91 46 6 10 -8 9 -56 -4 -16 -5 -39 -2 -60 7 -19 8 -38
15 -44 16 -11 3 -102 68 -122 87 -6 6 -24 10 -40 8 -88 -10 -226 -17 -354 -18
-143 -1 -146 0 -139 19 9 24 -4 64 -22 67 -7 0 -26 2 -41 3 -15 1 -34 11 -42
21 -49 62 -129 181 -175 259 -30 50 -54 91 -56 93 -3 6 -100 20 -141 21 -31 1
-29 10 15 56 21 22 60 67 87 100 28 33 56 66 63 73 6 7 12 17 12 20 0 4 10 19
23 32 27 31 44 55 136 192 l71 106 231 -3 232 -3 81 -159 c84 -162 196 -353
228 -387 10 -11 18 -24 18 -28 0 -5 8 -18 18 -29 19 -19 43 -20 118 -4 12 3
39 7 60 11 60 9 199 41 302 71 l94 26 24 -29 c13 -16 27 -34 31 -39 5 -6 39
-46 78 -89 42 -47 65 -81 57 -84 -15 -5 -16 -48 -2 -57 29 -18 114 74 96 104
-6 9 -43 7 -53 -3 -5 -5 -102 103 -183 203 l-35 43 -70 -22 c-107 -33 -271
-73 -350 -85 -16 -2 -54 -9 -84 -15 -29 -5 -55 -10 -58 -10 -19 0 -241 387
-318 553 -35 74 -43 86 -65 86 -14 1 -123 2 -243 4 l-218 3 -37 -54 c-39 -57
-272 -373 -282 -382 -3 -3 -38 -46 -79 -96 -56 -70 -78 -90 -94 -88 -29 3 -83
13 -132 24 -22 5 -53 11 -70 14 -38 7 -136 34 -140 38 -10 13 -125 323 -131
356 -3 13 -11 42 -19 65 -14 42 -43 154 -51 192 -2 11 -9 45 -16 75 -6 30 -12
63 -13 72 -2 23 4 19 -93 58 -45 18 -84 35 -86 39 -3 3 19 31 47 62 55 58 141
157 174 198 17 21 21 22 41 10 31 -19 51 -4 87 66 24 48 29 69 30 131 0 83
-11 104 -48 87 -30 -14 -75 -103 -84 -168 -5 -32 -102 -155 -235 -299 -26 -28
-48 -54 -48 -58 0 -16 -34 -6 -127 37 -53 25 -100 45 -106 45 -5 0 -39 -29
-76 -64 -97 -93 -134 -126 -144 -126 -16 0 -67 34 -68 45 0 5 -2 19 -4 30 -3
11 -7 47 -11 80 -3 33 -8 62 -10 64 -2 2 6 21 16 41 36 71 34 170 -3 170 -24
0 -65 -54 -77 -101 -16 -64 -10 -102 18 -114 12 -5 22 -19 22 -30 0 -11 3 -44
7 -73 l6 -53 -79 52 c-43 29 -85 59 -92 66 -7 7 -16 13 -20 13 -4 0 -20 11
-36 25 -16 14 -32 25 -35 25 -3 0 -24 16 -46 35 -22 19 -45 38 -50 43 -42 30
-178 154 -265 241 -142 142 -190 199 -191 225 -2 45 3 71 17 82 23 18 46 86
46 133 -1 52 -28 87 -59 77 -44 -14 -71 -139 -41 -189 7 -12 12 -37 10 -55
l-3 -33 -61 78 c-33 43 -83 111 -110 151 -50 74 -50 74 -44 135 11 113 18 141
40 172 32 43 50 110 36 135 -14 25 -21 25 -49 -1 -45 -42 -83 -169 -50 -169 8
0 9 -17 5 -52 -3 -29 -6 -63 -6 -75 0 -31 -14 -29 -30 5 -8 15 -20 34 -27 42
-17 22 -157 305 -178 362 -20 53 -15 53 -116 -2 l-67 -37 -31 91 c-46 135 -68
219 -66 257 3 47 19 165 30 224 24 128 25 132 47 131 13 -1 22 6 24 17 1 11 5
21 7 24 6 6 87 -47 87 -57 0 -3 -7 -30 -16 -60 -19 -63 -18 -59 -43 -180 -11
-52 -23 -121 -27 -152 -6 -50 -9 -57 -27 -55 -12 1 -21 -5 -23 -16 -4 -27 30
-98 60 -126 22 -21 26 -22 32 -8 3 9 -1 37 -9 62 -9 25 -14 55 -12 67 2 13 6
41 9 63 3 22 8 52 11 68 3 15 7 37 9 50 2 12 10 42 16 67 7 25 14 52 15 60 5
39 40 146 52 158 7 7 13 20 13 28 0 23 86 227 138 329 44 87 141 253 162 278
6 6 38 52 73 101 52 75 74 98 136 138 41 26 76 46 77 45 1 -1 5 -40 8 -87 7
-90 14 -145 22 -171 3 -12 -22 -36 -88 -83 -51 -36 -106 -77 -123 -91 -16 -14
-43 -37 -58 -50 -19 -16 -27 -31 -23 -42 3 -10 7 -29 10 -43 4 -27 15 -75 23
-102 4 -16 6 -16 26 3 12 11 75 64 140 117 94 76 120 93 128 81 14 -22 12 -24
-44 -70 -28 -24 -59 -49 -67 -56 -8 -8 -27 -24 -41 -36 -14 -12 -47 -42 -73
-66 l-48 -44 17 -61 c9 -33 22 -74 29 -90 l12 -29 55 54 c61 60 119 111 200
179 29 25 69 59 88 76 l34 30 -23 70 c-12 38 -25 73 -27 77 -3 4 -20 -3 -38
-17 -28 -22 -34 -23 -39 -10 -12 30 -6 44 25 60 33 16 34 27 15 109 -2 11 -5
27 -5 35 -3 35 -17 43 -44 26 -30 -21 -33 -17 -40 59 -21 196 -21 188 13 207
31 17 31 19 29 90 -1 40 -4 76 -6 80 -2 4 -15 1 -29 -8 -24 -16 -24 -16 -24
14 0 23 6 32 30 42 17 7 30 20 31 29 0 9 3 44 5 79 2 34 2 62 -1 62 -3 0 -14
-6 -25 -12 -17 -11 -22 -10 -29 1 -14 22 -2 39 34 51 30 10 42 27 49 70 2 8 6
34 10 57 l8 42 -33 -9 c-18 -6 -37 -6 -41 -2 -16 16 4 42 42 53 34 10 40 17
55 63 10 28 19 59 20 69 2 9 7 22 11 29 7 11 7 11 -64 -11 -29 -9 -33 -8 -28
5 3 9 6 19 6 24 0 9 24 20 59 26 14 3 31 9 39 13 14 8 75 141 68 148 -2 2 -29
-2 -60 -10 -45 -12 -56 -12 -56 -2 0 19 20 32 69 45 l44 12 58 -64 c33 -35 71
-75 85 -90 14 -16 21 -29 15 -29 -6 -1 -14 -2 -18 -4 -5 -1 -25 -5 -45 -9 -42
-9 -52 -18 -63 -61 -5 -16 -9 -34 -11 -40 -10 -34 -12 -55 -6 -55 4 0 32 7 62
15 30 8 69 18 85 21 17 3 50 10 75 15 25 6 59 13 75 15 17 3 41 7 55 11 28 6
78 14 98 16 8 0 18 10 24 22 6 13 50 41 113 72 l103 52 13 53 c7 29 14 55 14
58 1 3 4 12 8 20 3 8 11 33 17 55 25 83 96 255 158 378 63 128 73 139 132 152
8 2 28 8 45 15 27 10 32 9 53 -17 32 -39 261 -384 304 -458 37 -65 34 -64 128
-50 143 20 220 28 298 29 l74 1 78 -179 c53 -120 76 -185 71 -195 -5 -9 -13
-36 -19 -61 -6 -25 -19 -63 -28 -85 -10 -22 -18 -42 -19 -45 -1 -6 -43 -118
-52 -140 -3 -8 -7 -17 -8 -20 -14 -55 -29 -80 -48 -81 -12 0 -31 -2 -42 -3
-11 -2 -54 -6 -95 -11 -41 -4 -77 -9 -80 -10 -3 -2 -26 -6 -50 -10 -25 -4 -75
-13 -112 -21 -37 -7 -82 -16 -100 -19 -18 -3 -50 -11 -70 -17 -35 -10 -40 -9
-64 15 -57 57 -136 38 -163 -40 -12 -34 -13 -48 -2 -80 33 -98 158 -103 192
-8 15 40 22 43 184 76 108 22 118 24 185 33 25 3 63 9 85 12 48 8 89 12 132
13 30 1 32 5 52 65 11 35 39 112 62 170 38 101 59 136 59 101 0 -8 11 -20 25
-27 32 -15 68 8 95 62 34 66 22 162 -22 176 -21 6 -19 16 13 90 11 24 25 44
32 45 31 3 119 0 192 -7 44 -3 98 -7 119 -8 31 -2 42 -7 50 -27 18 -40 34 -50
72 -47 50 4 79 43 78 103 -2 50 -23 90 -54 100 -30 10 -75 -12 -89 -42 l-12
-25 -122 7 c-67 3 -153 8 -190 10 -39 3 -65 1 -62 -5 3 -5 1 -11 -4 -14 -5 -4
-24 -38 -42 -76 -17 -39 -35 -70 -38 -70 -3 0 -19 30 -34 68 -15 37 -49 112
-76 167 l-48 100 22 40 c43 80 127 217 205 334 68 102 83 119 102 116 13 -2
79 -6 148 -10 69 -3 143 -7 165 -9 81 -8 161 -17 180 -21 11 -2 23 -4 28 -4
20 -2 159 -352 145 -366 -2 -2 -20 0 -39 5 -19 4 -54 11 -79 14 -25 3 -46 5
-48 5 -2 1 -8 15 -14 31 -13 40 -71 80 -106 74 -98 -18 -145 -130 -89 -211 43
-65 126 -61 179 8 l26 33 70 -13 c39 -7 79 -14 89 -16 10 -2 23 -4 29 -4 6 -1
16 -20 22 -43 9 -33 8 -47 -5 -71 -22 -43 -12 -106 22 -134 78 -67 183 31 141
131 -16 39 -49 61 -88 58 -16 -1 -28 2 -28 7 0 5 -3 17 -6 25 -4 11 -2 15 7
12 8 -3 31 -8 53 -11 21 -3 42 -8 47 -11 5 -2 21 -7 36 -9 16 -3 39 -7 53 -11
22 -5 34 5 92 73 106 123 126 144 130 136 3 -4 9 -26 16 -48 6 -22 18 -65 26
-95 9 -30 27 -109 40 -175 25 -122 30 -152 42 -240 4 -27 8 -57 10 -65 1 -8 3
-25 3 -38 1 -18 13 -28 59 -48 31 -13 123 -57 204 -97 l147 -72 -1 -41 c-1
-100 72 -147 141 -89 37 32 55 84 48 142 -9 80 -72 110 -133 64 l-29 -21 -135
68 c-74 38 -165 82 -202 97 -62 27 -68 32 -69 60 0 16 -2 37 -4 45 -10 39 -13
59 -19 105 -4 28 -9 57 -11 65 -2 8 -6 26 -9 40 -2 14 -12 57 -21 95 -9 39
-18 78 -20 89 -3 10 -12 44 -21 75 -10 31 -18 58 -19 61 0 3 -4 18 -8 34 -7
25 -3 34 29 67 30 30 40 36 48 25 6 -7 40 -23 76 -36 36 -12 81 -29 100 -37
19 -8 44 -19 55 -23 264 -111 443 -206 660 -348 72 -47 135 -89 140 -94 6 -4
44 -34 85 -65 107 -82 144 -118 146 -145 1 -13 5 -59 9 -103 17 -169 6 -535
-19 -672 -19 -102 -26 -85 82 -203 13 -14 55 -66 94 -117 69 -90 70 -92 58
-127 -27 -82 10 -108 67 -46 42 45 60 95 54 150 -2 16 -33 12 -53 -7 -11 -10
-22 -13 -26 -7 -5 5 -39 48 -76 96 -37 48 -92 116 -122 150 l-55 63 7 60 c3
33 8 74 10 90 26 200 21 511 -11 714 -3 19 -7 35 -8 36 -1 1 -38 31 -83 66
-322 260 -694 466 -1137 631 l-38 14 73 70 c94 88 150 134 250 206 76 55 81
57 106 44 15 -8 61 -30 102 -49 101 -48 223 -115 315 -172 57 -36 81 -58 97
-88 36 -71 94 -117 117 -94 50 50 -80 262 -134 217 -8 -7 -13 -15 -12 -18 5
-15 -20 -10 -53 10 -19 12 -51 30 -70 41 -19 11 -64 36 -100 57 -36 21 -118
63 -182 94 l-117 57 -43 -27 c-23 -15 -48 -32 -55 -38 -6 -6 -28 -22 -48 -36
-20 -14 -47 -34 -60 -45 -12 -11 -44 -38 -70 -60 -26 -22 -64 -58 -86 -79 -22
-21 -41 -37 -43 -35 -1 2 -8 20 -16 39 -22 58 -141 303 -161 332 -11 14 -19
29 -19 32 0 12 256 -108 317 -149 28 -19 30 -23 18 -36 -9 -9 -11 -19 -6 -28
8 -12 19 -10 64 13 54 26 76 51 60 67 -5 5 -22 5 -38 0 -25 -6 -46 1 -134 47
-56 30 -151 74 -209 98 -104 42 -108 45 -156 110 -48 64 -49 67 -30 81 23 18
157 84 176 87 7 1 19 5 26 10 22 13 80 -3 109 -30 31 -29 82 -58 89 -51 10 10
136 -38 289 -108 190 -88 275 -129 315 -155 25 -16 59 -32 75 -36 17 -4 44
-19 61 -33 115 -97 143 -125 199 -196 70 -89 124 -176 175 -280 32 -67 55 -97
100 -128 95 -67 413 -381 509 -505 35 -45 65 -93 67 -106 8 -78 94 -203 129
-190 23 9 18 76 -10 139 -40 92 -84 136 -112 113 -8 -6 -15 -3 -22 10 -6 10
-25 37 -43 59 -18 22 -49 60 -68 84 -89 110 -266 292 -391 400 -30 26 -66 57
-81 70 -14 13 -45 59 -67 102 -46 88 -120 200 -175 265 -20 24 -36 46 -36 49
0 5 87 -63 105 -81 6 -6 37 -33 70 -60 165 -136 373 -382 358 -423 -3 -7 23
-41 58 -75 35 -36 64 -58 66 -51 5 13 -49 97 -70 110 -6 4 -20 24 -30 43 -32
59 -52 95 -57 100 -3 3 -24 30 -47 60 -115 152 -271 282 -593 495 -41 27 -84
59 -95 70 -11 11 -56 37 -100 59 -44 21 -86 47 -94 58 -15 22 -90 60 -103 52
-4 -3 -8 0 -8 5 0 10 -164 94 -265 136 -71 29 -279 107 -300 111 -71 15 -75
15 -75 -5 0 -23 21 -32 76 -29 22 0 57 -7 79 -18 22 -10 42 -19 45 -19 10 0
170 -69 167 -71 -2 -2 -61 17 -132 42 l-130 45 -65 -17 c-36 -9 -94 -30 -130
-45 l-65 -28 -8 31 c-5 17 -15 41 -23 53 -14 22 -14 24 5 30 38 12 16 42 -35
49 -16 2 -56 10 -89 19 -33 8 -80 19 -105 23 -25 4 -47 8 -50 9 -3 1 -32 5
-65 9 -33 4 -73 9 -90 12 -52 8 -450 16 -457 9z m866 -184 c14 -30 23 -57 21
-60 -9 -9 -93 92 -88 105 3 8 -1 22 -8 31 -12 14 -9 14 18 -2 21 -12 40 -37
57 -74z m536 -71 c0 -5 -13 -2 -30 6 -16 9 -30 17 -30 19 0 2 14 -1 30 -6 17
-6 30 -15 30 -19z m66 -22 c4 -6 -2 -7 -17 -3 -35 10 -45 23 -15 18 15 -3 29
-10 32 -15z m48 -17 c4 -5 -1 -8 -9 -7 -21 3 -31 16 -12 16 9 0 18 -4 21 -9z
m-606 -78 c1 -53 4 -56 54 -72 42 -14 55 -32 128 -178 38 -76 130 -280 130
-288 0 -4 -68 -75 -72 -75 -3 0 -10 17 -16 39 -7 21 -18 43 -25 48 -14 11
-184 59 -277 78 -15 3 -87 19 -95 21 -5 1 -55 10 -110 20 l-101 17 -31 66
c-18 35 -30 68 -27 72 2 4 16 4 30 0 23 -6 37 4 117 84 51 50 116 111 146 135
136 111 148 114 149 33z m652 57 c0 -5 -7 -7 -15 -4 -8 4 -15 8 -15 10 0 2 7
4 15 4 8 0 15 -4 15 -10z m50 -26 c0 -2 -9 0 -20 6 -11 6 -20 13 -20 16 0 2 9
0 20 -6 11 -6 20 -13 20 -16z m60 -24 c19 -11 31 -19 25 -19 -5 0 -26 8 -45
19 -19 11 -30 19 -25 19 6 0 26 -8 45 -19z m-725 -30 c3 -5 2 -10 -4 -10 -5 0
-13 5 -16 10 -3 6 -2 10 4 10 5 0 13 -4 16 -10z m830 -13 c17 -6 47 -21 67
-34 21 -13 42 -23 48 -23 6 0 9 -4 6 -9 -3 -5 -45 11 -93 36 -86 44 -118 64
-78 49 11 -5 34 -13 50 -19z m-1760 -204 c-12 -12 -45 -54 -72 -92 -2 -3 -56
-6 -121 -7 -64 -2 -134 -5 -155 -7 -35 -3 -39 -1 -67 45 -36 58 -37 64 -7 65
122 6 292 15 294 16 1 1 33 1 72 -1 63 -3 69 -5 56 -19z m310 2 c11 -2 32 -4
47 -4 20 -1 32 -11 52 -46 37 -67 42 -88 19 -81 -10 3 -45 8 -78 11 -33 4 -76
9 -95 11 -19 2 -89 6 -155 9 -65 3 -120 7 -122 8 -1 2 14 26 33 54 l36 51 121
-5 c67 -2 131 -5 142 -8z m-772 -37 c10 -18 29 -52 43 -75 l25 -42 134 5 135
5 -12 -25 c-6 -14 -15 -26 -20 -26 -4 0 -8 -5 -8 -10 0 -6 -16 -33 -35 -60
-19 -27 -35 -52 -35 -54 0 -3 -13 -24 -29 -48 -49 -74 -123 -218 -118 -231 3
-9 -14 -12 -62 -11 -36 0 -87 -3 -112 -7 -25 -4 -68 -10 -95 -13 -67 -8 -114
-16 -149 -25 -35 -8 -65 -4 -65 11 0 5 -10 24 -22 41 -13 18 -23 34 -23 37 -1
13 -158 250 -228 344 -32 43 -56 80 -54 82 4 5 180 49 280 70 136 29 308 56
398 62 31 2 37 -2 52 -30z m1087 -188 c30 -6 66 -13 80 -15 14 -3 39 -8 55
-11 40 -7 297 -73 299 -76 37 -71 36 -79 -26 -149 -31 -35 -72 -81 -90 -101
l-33 -38 -124 27 c-128 29 -131 31 -145 88 -2 6 -6 19 -11 30 -107 276 -104
265 -81 260 11 -2 46 -9 76 -15z m-2115 -124 c-48 -95 -140 -311 -151 -356 -9
-37 -45 -135 -53 -143 -5 -5 -32 -19 -60 -32 l-51 -24 6 27 c10 38 98 297 122
357 11 28 40 93 65 146 l45 96 64 20 c35 12 64 20 65 19 2 -1 -22 -51 -52
-110z m-112 57 c-7 -2 -13 -9 -13 -15 0 -5 -18 -47 -39 -91 -73 -152 -158
-383 -177 -481 -7 -41 -21 -50 -94 -59 -25 -3 -85 -11 -134 -17 l-90 -12 -39
43 c-22 24 -59 66 -83 92 -24 27 -44 53 -44 57 0 14 41 89 51 96 16 9 10 37
-6 30 -33 -12 -11 7 58 50 39 26 88 57 107 69 75 49 216 122 420 218 30 14 64
26 75 26 11 0 14 -3 8 -6z m-902 -564 c-6 -18 -24 -29 -65 -42 -87 -28 -147
-57 -153 -75 -3 -9 -11 -24 -18 -32 -14 -19 -46 -102 -41 -108 3 -2 26 6 53
18 52 24 151 60 164 60 11 0 -1 -38 -17 -50 -7 -7 -19 -13 -26 -14 -7 -1 -29
-9 -48 -17 -19 -9 -56 -24 -82 -35 -43 -17 -50 -24 -65 -69 -9 -27 -18 -52
-18 -55 -1 -3 -5 -14 -9 -25 -14 -36 -15 -45 -7 -45 7 0 169 76 213 100 25 14
25 13 20 -18 -3 -25 -17 -35 -111 -81 -59 -29 -114 -59 -124 -66 -19 -13 -52
-129 -43 -151 4 -11 16 -7 57 17 93 54 188 98 194 88 16 -24 -11 -50 -91 -89
-135 -65 -178 -96 -180 -128 -1 -15 -4 -53 -7 -84 -2 -32 -3 -58 -1 -58 2 0
36 21 75 46 39 25 81 49 93 54 11 5 35 18 51 29 37 26 54 27 50 4 -2 -10 -4
-21 -4 -25 -1 -3 -66 -46 -145 -94 -92 -55 -147 -95 -151 -108 -3 -12 -6 -56
-5 -100 1 -68 -2 -83 -24 -117 -15 -21 -27 -39 -29 -39 -1 0 -2 17 -2 38 0 20
-2 55 -5 77 -3 22 -3 51 0 65 4 14 3 37 -1 52 -4 14 -5 29 -2 32 3 3 7 38 9
79 2 40 6 91 9 112 3 22 8 65 11 95 4 30 12 70 20 88 7 17 16 58 19 90 4 31
10 73 15 92 5 19 11 46 14 60 17 86 45 178 59 193 7 7 37 42 67 77 93 110 107
121 198 155 48 18 88 31 90 30 1 -1 -2 -13 -7 -26z m-721 -2643 c9 -27 8 -47
-6 -98 -9 -34 -18 -74 -20 -87 -3 -12 -12 -53 -20 -90 -9 -36 -18 -77 -21 -91
-10 -59 -41 -174 -42 -157 -1 9 -5 17 -9 17 -5 0 -9 6 -9 13 -1 12 -37 117
-53 152 -9 21 -44 129 -42 132 0 1 -8 24 -17 51 l-18 49 53 38 c61 45 164 104
181 105 6 0 17 -15 23 -34z m375 -686 c-2 -14 -6 -47 -10 -75 -3 -27 -8 -57
-10 -65 -2 -8 -7 -35 -11 -60 -3 -25 -7 -52 -9 -60 -2 -8 -9 -54 -15 -103 -7
-48 -15 -85 -18 -82 -9 8 -17 83 -17 155 0 61 7 118 20 172 3 12 8 37 10 53 2
17 4 30 5 30 1 0 3 9 5 20 2 11 7 36 10 55 l7 34 18 -24 c10 -14 17 -36 15
-50z m230 -247 c13 -16 22 -35 20 -43 -4 -16 -14 -67 -20 -110 -10 -68 -16
-108 -22 -135 -4 -16 -6 -38 -4 -47 1 -10 -2 -18 -7 -18 -5 0 -9 6 -10 13 -1
6 -3 28 -6 47 -3 19 -7 55 -11 79 -4 37 2 94 20 181 2 8 4 25 4 38 1 29 7 28
36 -5z m-320 -241 c-2 -2 -10 11 -18 28 -11 20 -14 43 -9 68 6 36 6 36 18 -28
7 -36 11 -66 9 -68z m585 -72 c-15 -81 -33 -194 -37 -239 -6 -61 -13 -73 -36
-56 -19 14 -22 32 -14 75 5 24 18 108 22 140 1 13 15 97 20 125 1 6 3 19 3 30
2 18 4 18 26 -5 22 -22 24 -30 16 -70z m-326 -53 c16 -66 11 -176 -9 -195 -3
-3 -15 5 -26 17 -23 24 -23 25 3 174 6 37 13 65 15 63 3 -2 10 -29 17 -59z
m578 -91 c10 -7 16 -22 14 -33 -3 -11 -7 -44 -11 -74 -4 -30 -8 -56 -10 -59
-2 -3 -6 -27 -10 -55 -4 -27 -9 -63 -11 -80 -3 -16 -5 -38 -5 -47 0 -23 -14
-23 -39 2 -12 12 -17 28 -14 42 5 24 8 48 25 158 5 36 13 79 16 95 3 17 5 38
5 48 -1 20 16 22 40 3z m-483 -246 c41 -36 90 -80 109 -97 19 -18 48 -43 64
-55 29 -22 147 -238 130 -238 -4 0 -19 9 -32 19 -268 212 -320 258 -368 330
-20 30 -50 69 -67 86 -26 26 -40 47 -50 75 -1 3 -4 12 -8 20 -3 8 -12 37 -21
64 l-16 48 93 -94 c50 -52 125 -123 166 -158z m1061 225 c35 -18 37 -26 10
-43 -12 -7 -18 -17 -15 -21 3 -5 0 -11 -6 -13 -16 -5 -24 -110 -10 -135 5 -11
8 -23 4 -26 -5 -6 -125 51 -171 81 l-24 15 79 78 c43 42 84 78 91 78 7 1 26
-6 42 -14z m124 -87 c-24 -25 -31 -23 -32 11 -1 28 1 29 24 19 23 -11 23 -12
8 -30z m171 -44 c67 -29 86 -41 90 -60 3 -13 8 -36 11 -51 4 -16 8 -37 10 -48
14 -95 104 -378 165 -522 21 -51 39 -96 39 -101 0 -5 -26 -1 -57 10 -32 11
-65 21 -73 23 -8 2 -49 15 -90 29 -82 29 -82 29 -122 40 -23 7 -32 21 -57 84
-26 69 -75 222 -86 269 -2 10 -11 45 -19 79 -14 57 -18 77 -31 148 -5 26 2 37
52 88 32 32 64 56 71 53 7 -2 51 -21 97 -41z m-638 -72 c-15 -20 -19 -7 -11
34 l8 39 6 -30 c4 -16 2 -36 -3 -43z m-561 23 c11 -10 13 -27 9 -62 -10 -81
-13 -85 -36 -65 -17 15 -19 25 -13 72 9 75 14 82 40 55z m806 -96 l60 -30 27
23 c14 13 29 28 33 33 9 12 28 -12 28 -36 0 -47 74 -299 131 -449 l40 -105 52
-18 c29 -10 59 -20 67 -22 14 -4 123 -40 160 -53 8 -3 18 -6 23 -7 4 -2 8 -3
10 -5 1 -1 9 -3 17 -5 39 -10 61 -15 78 -20 40 -12 271 -65 314 -73 38 -7 50
-6 60 5 9 11 24 13 62 8 28 -3 69 -8 90 -11 22 -3 43 -7 47 -10 4 -2 35 -49
69 -105 35 -55 87 -132 117 -170 52 -68 53 -71 42 -104 -7 -18 -17 -32 -23
-30 -6 2 -49 6 -96 9 -144 10 -173 16 -188 37 -7 10 -22 19 -32 19 -12 0 -43
32 -85 89 -54 72 -73 90 -98 95 -18 3 -45 8 -62 11 -16 3 -57 12 -90 20 -33 9
-69 17 -80 19 -11 1 -30 6 -42 10 -12 4 -32 9 -45 12 -37 8 -38 9 -148 44 -58
18 -109 35 -115 36 -5 1 -41 14 -80 29 -38 15 -85 32 -103 38 -22 7 -38 22
-49 44 -26 56 -68 65 -92 21 -14 -24 -14 -30 2 -62 9 -20 12 -36 6 -36 -10 0
-68 87 -70 105 0 6 -6 17 -13 25 -36 43 -147 344 -180 490 -10 41 -22 89 -27
106 -14 46 -11 85 8 99 14 10 25 7 66 -17 27 -16 77 -43 109 -59z m-218 4 c5
-19 13 -57 22 -107 3 -16 7 -33 10 -38 3 -4 7 -18 10 -30 9 -38 12 -53 14 -55
2 -2 3 -6 4 -10 4 -16 28 -89 36 -108 4 -11 23 -58 41 -105 18 -47 54 -126 80
-177 54 -105 59 -103 -75 -31 -38 21 -70 38 -72 38 -9 0 -189 114 -192 121 -2
5 -9 9 -15 9 -6 0 -57 35 -113 78 -117 87 -138 119 -129 192 10 87 17 130 21
130 15 0 52 -34 49 -43 -2 -7 -7 -30 -10 -52 -3 -22 -8 -54 -11 -72 -6 -31 -3
-33 95 -99 62 -41 105 -64 111 -58 5 5 11 29 14 54 2 25 5 45 6 45 1 0 3 14 5
30 9 75 15 112 20 140 6 28 13 85 14 113 1 14 37 52 50 52 5 0 12 -8 15 -17z
m-32 -625 c18 -34 22 -48 13 -48 -15 0 -42 35 -68 86 -16 32 -16 32 7 21 12
-6 34 -32 48 -59z m272 -147 c10 -18 16 -34 13 -37 -11 -11 -43 20 -59 58
l-17 40 22 -15 c12 -8 30 -29 41 -46z m288 -6 c118 -39 319 -103 363 -115 237
-64 250 -68 243 -75 -2 -2 -20 0 -39 5 -19 5 -50 12 -69 15 -19 3 -42 8 -50
10 -8 2 -28 7 -45 9 -50 9 -306 76 -375 99 -36 12 -67 22 -70 22 -11 2 -56 17
-83 27 -25 10 -26 12 -10 24 24 18 19 19 135 -21z m-33 -105 c11 -22 17 -40
13 -40 -5 0 -18 18 -31 40 -12 22 -18 40 -13 40 6 0 19 -18 31 -40z m259 -86
c36 -62 40 -79 16 -66 -19 11 -75 107 -67 116 12 12 19 5 51 -50z m419 0 c-3
-3 -12 -4 -19 -1 -8 3 -5 6 6 6 11 1 17 -2 13 -5z m-190 -21 c4 -10 17 -36 31
-57 19 -31 21 -38 7 -32 -9 3 -21 6 -26 6 -5 0 -9 5 -9 10 0 6 -11 28 -25 50
-24 39 -25 40 -5 40 11 0 24 -8 27 -17z m252 5 c60 -73 119 -153 116 -156 -2
-3 -24 -1 -49 2 -41 7 -49 12 -81 60 -40 60 -47 106 -15 106 10 0 24 -6 29
-12z m-169 -152 c17 -45 86 -151 100 -155 8 -2 20 -4 25 -6 6 -1 29 -6 53 -10
44 -8 69 -24 29 -19 -34 4 -209 44 -219 50 -16 10 -7 25 12 19 27 -9 26 0 -15
78 -19 37 -35 69 -35 71 0 14 43 -10 50 -28z m305 -53 c7 -9 24 -18 39 -20 15
-2 41 -17 59 -34 17 -17 58 -48 90 -70 70 -46 67 -48 -73 -33 -36 3 -71 6 -78
7 -8 0 -41 40 -73 89 l-60 88 42 -5 c23 -3 47 -13 54 -22z"/>
<path d="M2570 5683 c-38 -11 -60 -28 -74 -58 -12 -24 -28 -37 -63 -50 -27 -9
-89 -33 -140 -53 l-92 -37 -11 -45 c-11 -46 -14 -60 -25 -140 -3 -25 -9 -58
-11 -75 -3 -16 -7 -48 -9 -70 -1 -22 -6 -65 -9 -95 -4 -30 -9 -108 -10 -173
-2 -65 -6 -120 -9 -123 -17 -18 -173 -100 -175 -93 -4 10 -69 -25 -232 -124
-63 -38 -145 -88 -182 -111 -76 -46 -76 -46 -37 -135 12 -29 27 -50 33 -48 6
3 95 61 199 131 103 69 187 124 187 121 0 -3 16 6 36 21 25 20 34 33 30 47 -7
28 0 33 129 102 l50 26 3 107 c3 141 10 235 27 392 5 42 25 163 33 198 8 37
32 50 199 107 l74 26 30 -31 c41 -41 89 -41 130 -1 39 40 42 82 8 138 -20 32
-62 53 -89 46z"/>
<path d="M1847 5483 c-2 -2 -24 -6 -48 -9 -24 -4 -118 -25 -208 -48 l-164 -41
-17 -67 c-10 -42 -12 -69 -6 -71 5 -2 55 10 110 26 126 35 109 31 253 68 l121
31 7 45 c4 25 9 51 12 59 3 9 -5 12 -26 12 -17 -1 -32 -3 -34 -5z"/>
<path d="M1730 5300 c-58 -16 -157 -46 -220 -67 l-115 -38 -10 -61 c-6 -33
-10 -65 -8 -71 3 -8 211 58 470 148 6 2 15 30 18 62 8 69 14 67 -135 27z"/>
<path d="M1755 5129 c-60 -20 -110 -37 -110 -37 0 -2 -59 -22 -65 -22 -11 0
-193 -69 -200 -76 -8 -8 -6 -154 2 -154 4 0 38 14 75 31 90 41 297 127 353
146 25 8 49 18 53 22 4 5 7 35 5 68 l-3 59 -110 -37z"/>
<path d="M1815 4977 c-116 -46 -312 -130 -371 -159 l-65 -31 7 -55 c9 -77 9
-81 15 -87 3 -3 84 35 180 83 96 49 204 102 241 117 l66 29 -5 45 c-10 80 -11
81 -68 58z"/>
<path d="M1745 4764 c-214 -108 -335 -174 -335 -186 0 -13 31 -132 35 -136 2
-2 59 30 127 70 114 69 206 121 303 172 31 17 40 27 39 46 -1 46 -16 100 -28
100 -6 -1 -69 -30 -141 -66z"/>
<path d="M1970 4492 c-14 -8 -44 -28 -67 -44 -23 -15 -44 -28 -48 -28 -3 0
-11 -5 -18 -10 -7 -6 -73 -54 -147 -107 -74 -52 -141 -101 -148 -108 -11 -10
-8 -24 17 -79 16 -36 33 -66 38 -66 4 0 22 12 38 26 17 14 46 38 65 53 19 14
37 28 40 31 5 6 83 64 232 173 l77 57 -23 47 c-13 27 -25 53 -27 59 -3 8 -12
7 -29 -4z"/>
<path d="M2045 4335 c-11 -8 -31 -23 -44 -32 -52 -38 -269 -209 -323 -255
l-58 -50 22 -41 c11 -23 29 -54 40 -70 l19 -27 52 49 c89 83 108 100 245 214
72 60 132 113 132 116 0 10 -55 111 -60 111 -3 -1 -14 -7 -25 -15z"/>
<path d="M2095 4149 c-107 -91 -198 -172 -284 -255 l-84 -81 34 -49 c34 -49
55 -74 61 -74 2 0 96 91 209 203 l206 202 -36 52 c-20 29 -38 52 -41 53 -3 0
-32 -23 -65 -51z"/>
<path d="M1360 4057 c-20 -17 -56 -49 -80 -70 -106 -91 -240 -221 -240 -233 0
-7 15 -48 34 -90 l34 -76 114 113 c63 63 147 143 186 179 l71 65 -29 60 c-16
33 -30 66 -30 73 0 21 -23 13 -60 -21z"/>
<path d="M2107 3902 c-183 -183 -247 -252 -247 -263 0 -4 20 -29 45 -56 24
-26 45 -51 45 -55 1 -22 27 3 126 119 60 70 116 135 124 144 8 9 40 42 70 75
78 83 86 94 73 102 -6 4 -26 26 -45 49 l-35 42 -156 -157z"/>
<path d="M2365 3907 c-9 -10 -83 -96 -177 -202 -92 -105 -177 -212 -178 -224
0 -7 25 -38 56 -67 l57 -53 84 112 c91 122 104 139 209 271 l71 89 -36 31
c-20 17 -42 37 -49 44 -16 15 -24 15 -37 -1z"/>
<path d="M4010 2911 l0 -1007 118 1 117 0 0 1005 0 1005 -117 1 -118 1 0
-1006z"/>
<path d="M4599 3911 c-7 -35 -3 -201 6 -203 5 0 138 -2 295 -3 157 -2 293 -3
303 -4 16 -1 17 -47 17 -868 0 -478 0 -881 0 -898 l0 -30 118 0 117 0 2 880
c1 484 2 889 2 900 1 20 8 20 307 19 168 0 308 4 311 9 7 12 6 188 -2 196 -8
7 -1475 9 -1476 2z"/>
<path d="M1464 3864 c-119 -108 -281 -274 -307 -314 -15 -24 -14 -28 31 -103
l46 -77 24 27 c70 82 157 178 238 262 l91 95 -18 30 c-10 17 -22 38 -26 46 -4
8 -14 27 -23 42 l-17 28 -39 -36z"/>
<path d="M2439 3693 c-118 -152 -269 -360 -268 -369 0 -10 102 -92 121 -99 8
-2 52 56 112 148 54 84 127 193 162 243 l63 92 -49 41 c-27 22 -52 41 -57 41
-5 0 -42 -44 -84 -97z"/>
<path d="M1560 3648 c-54 -57 -66 -70 -180 -198 -85 -96 -110 -127 -110 -137
0 -5 13 -24 30 -43 16 -19 29 -40 30 -46 0 -11 42 -54 53 -54 3 0 20 20 36 44
17 25 37 50 44 58 7 7 28 33 47 58 19 24 42 52 50 61 110 117 160 186 144 197
-5 4 -28 32 -50 62 l-39 55 -55 -57z"/>
<path d="M2609 3597 c-30 -45 -56 -84 -59 -87 -3 -3 -11 -17 -19 -32 -8 -16
-18 -28 -23 -28 -4 0 -8 -4 -8 -10 0 -5 -19 -39 -42 -74 -79 -120 -108 -168
-108 -180 0 -16 130 -101 139 -90 5 5 46 77 93 159 47 83 111 194 143 248 31
54 56 99 54 101 -7 5 -94 63 -105 69 -6 3 -34 -29 -65 -76z"/>
<path d="M960 3533 c-42 -15 -86 -81 -90 -135 -6 -64 10 -94 55 -102 23 -4 35
2 65 32 89 88 66 240 -30 205z"/>
<path d="M1688 3457 c-32 -40 -68 -83 -80 -97 -25 -28 -64 -78 -122 -155 -20
-27 -44 -58 -52 -68 -13 -16 -12 -23 20 -65 37 -50 94 -108 99 -101 2 2 30 42
62 89 32 47 100 140 152 208 51 68 93 126 93 130 0 4 -26 35 -58 69 l-57 62
-57 -72z"/>
<path d="M2953 3403 c-20 -43 -76 -163 -124 -268 l-88 -190 32 -15 c74 -36
137 -58 138 -49 3 23 3 22 91 244 22 55 46 114 53 130 43 103 65 158 65 166 0
10 -100 59 -120 59 -6 0 -27 -35 -47 -77z"/>
<path d="M3165 3400 c-6 -10 -162 -414 -182 -470 -8 -25 -19 -52 -24 -61 -7
-14 0 -20 34 -35 23 -10 44 -18 47 -19 3 0 22 -7 43 -14 21 -7 39 -11 41 -9 1
1 19 57 40 123 21 66 60 189 87 274 27 85 48 158 46 164 -4 13 -126 57 -132
47z"/>
<path d="M1844 3271 c-33 -43 -66 -89 -74 -101 -8 -13 -24 -35 -36 -49 -30
-37 -124 -178 -130 -196 -4 -9 12 -32 43 -62 97 -94 85 -91 126 -28 21 30 37
56 37 59 0 2 46 73 103 157 56 85 105 159 110 166 4 7 -10 28 -36 55 -90 89
-76 89 -143 -1z"/>
<path d="M2219 2975 c-18 -36 -37 -65 -41 -65 -5 0 -8 -4 -8 -9 0 -5 -39 -77
-87 -160 -85 -147 -111 -176 -127 -136 -8 22 -50 18 -74 -8 -73 -78 -55 -254
23 -219 33 15 63 65 71 119 10 66 20 67 104 12 41 -27 78 -49 82 -49 4 0 50
87 103 193 53 105 102 200 109 210 15 19 46 14 46 -8 0 -7 -33 -82 -74 -167
-40 -84 -85 -179 -99 -211 l-26 -57 22 -14 c56 -34 149 -86 156 -86 4 0 15 19
25 43 10 23 24 56 32 74 8 17 14 34 14 37 0 3 11 29 24 58 54 121 71 162 72
167 0 3 6 18 14 34 10 21 18 26 34 21 12 -4 24 -11 27 -16 4 -6 -22 -81 -58
-167 -35 -86 -75 -186 -88 -224 l-25 -67 73 -34 c103 -47 113 -50 122 -29 4
10 20 56 36 103 16 47 33 94 38 105 5 11 16 40 24 65 40 113 59 160 66 160 5
0 7 -13 6 -29 -4 -44 43 -91 91 -91 29 0 44 8 75 39 37 37 43 52 42 116 -1 33
-3 39 -22 62 -28 34 -81 37 -124 7 -20 -13 -39 -24 -43 -24 -8 0 -355 174
-419 210 -22 12 -70 40 -107 61 -36 22 -68 39 -71 39 -2 0 -19 -29 -38 -65z"/>
<path d="M2217 2305 c-33 -34 -54 -80 -61 -134 -6 -55 0 -71 29 -71 56 0 123
178 83 218 -17 17 -22 15 -51 -13z"/>
</g>
</svg>
